# xmcd
#
# Track frame offsets:
#	150
#	12721
#	29186
#	46429
#	58164
#	70209
#	86452
#	104691
#	121568
#	139935
#	152170
#	165995
#	178688
#	188507
#	201678
#
# Disc length: 2842
#
# Revision: 2
# Processed by: cddbd v1.5.1PL0 Copyright (c) Steve Scherf et al.
# Submitted via: Grip 3.0.6
# Normalized: r1:DSETVAR1
#
DISCID=da0b180f
DTITLE=Various Artist - The Blues Disc 3
DYEAR=2003
DGENRE=Blues
TTITLE0=John Lee Hooker - Crawling King Snake
TTITLE1=Buddy Guy - Satisfaction (live)
TTITLE2=Bo Diddley - Say Boss Man
TTITLE3=Ray Charles - Ray Charles Blues
TTITLE4=Lightnin' Hopkins - Don't Think 'Cause Your Pretty
TTITLE5=Jimmy Reed - Cold And Lonesome
TTITLE6=Little Walter and Otis Rush - May Be The Last Time (live)
TTITLE7=Mississippi John Hurt - Make Me A Pallet On The Floor
TTITLE8=Lightnin' Slim - Hoodoo Blues
TTITLE9=Leadbelly - Goodnight Irene
TTITLE10=Lonnie Johnson - Sam, You Can't Do That To Me
TTITLE11=Elmore James - Standing At The Crossroads
TTITLE12=James Cotton - Diggin' My Potatoes
TTITLE13=Robert Johnson - Kind Hearted Woman Blues
TTITLE14=Big Joe Williams - Sloppy Drunk Blues
EXTD=
EXTT0=
EXTT1=
EXTT2=
EXTT3=
EXTT4=
EXTT5=
EXTT6=
EXTT7=
EXTT8=
EXTT9=
EXTT10=
EXTT11=
EXTT12=
EXTT13=
EXTT14=
PLAYORDER=
